<svg width="61" height="61" viewBox="0 0 61 61" fill="none" xmlns="http://www.w3.org/2000/svg">
<path d="M33.889 57.6108C33.889 59.4823 32.3714 60.9999 30.4999 60.9999C28.6285 60.9999 27.1108 59.4823 27.1108 57.6108C27.1108 57.3028 27.1493 57.0692 27.2097 56.7953C31.1862 39.4905 31.1862 21.5093 27.2097 4.20457C27.1535 3.95081 27.1108 3.71291 27.1108 3.389C27.1108 1.51756 28.6285 -6.10352e-05 30.4999 -6.10352e-05C32.3714 -6.10352e-05 33.889 1.51756 33.889 3.389C33.889 3.69705 33.85 3.93129 33.7902 4.20457C29.8137 21.5093 29.8137 39.4905 33.7902 56.7953C33.8457 57.0503 33.889 57.2875 33.889 57.6108Z" fill="url(#paint0_linear_273_238)"/>
<path d="M46.9913 52.2851C47.927 53.9059 47.3713 55.9786 45.7512 56.9143C44.1311 57.85 42.0577 57.2943 41.122 55.6742C40.9677 55.4076 40.8847 55.1856 40.7999 54.9185C35.5913 37.9437 26.6006 22.3719 14.5046 9.3737C14.3295 9.18216 14.1728 8.99735 14.0111 8.71737C13.0754 7.09663 13.6311 5.02391 15.2512 4.08819C16.8713 3.15247 18.9447 3.70817 19.8804 5.3283C20.0347 5.59487 20.1183 5.81749 20.2025 6.08405C25.4112 23.0588 34.4018 38.6306 46.4979 51.6288C46.6741 51.821 46.8297 52.0052 46.9913 52.2851Z" fill="url(#paint1_linear_273_238)"/>
<path d="M55.6738 41.1209C57.2946 42.0566 57.8496 44.1293 56.9139 45.7501C55.9782 47.3708 53.9055 47.9259 52.2847 46.9902C52.0182 46.8358 51.8352 46.6858 51.6278 46.4967C38.6296 34.4006 23.0578 25.41 6.08304 20.2013C5.83539 20.1226 5.60787 20.0409 5.32727 19.8792C3.70654 18.9435 3.15144 16.8708 4.08716 15.2501C5.02289 13.6293 7.09563 13.0742 8.71637 14.01C8.98293 14.1643 9.16653 14.3149 9.3727 14.5034C22.3709 26.5995 37.9427 35.5901 54.9174 40.7988C55.1669 40.8775 55.3932 40.9592 55.6738 41.1209Z" fill="url(#paint2_linear_273_238)"/>
<path d="M57.6109 27.1108C59.4823 27.1108 61 28.6284 61 30.4999C61 32.3713 59.4823 33.8889 57.6109 33.8889C57.3029 33.8889 57.0692 33.8506 56.7953 33.7902C39.4906 29.8137 21.5094 29.8137 4.20464 33.7902C3.95089 33.8463 3.713 33.8889 3.3891 33.8889C1.51765 33.8889 0 32.3713 0 30.4999C0 28.6284 1.51765 27.1108 3.3891 27.1108C3.69714 27.1108 3.93137 27.1492 4.20464 27.2096C21.5094 31.1861 39.4906 31.1861 56.7953 27.2096C57.0503 27.1541 57.2876 27.1108 57.6109 27.1108Z" fill="url(#paint3_linear_273_238)"/>
<path d="M52.284 14.0111C53.9047 13.0754 55.9775 13.6311 56.9132 15.2512C57.8489 16.8713 57.2932 18.9447 55.6731 19.8804C55.4065 20.0347 55.1845 20.1177 54.9173 20.2025C37.9426 25.4112 22.3708 34.4018 9.37257 46.4978C9.18103 46.6729 8.99621 46.8297 8.71622 46.9913C7.09548 47.927 5.02275 47.3713 4.08703 45.7512C3.15131 44.1311 3.70701 42.0577 5.32714 41.122C5.59371 40.9677 5.81634 40.8841 6.08291 40.7999C23.0576 35.5912 38.6294 26.6006 51.6276 14.5046C51.8198 14.3283 52.004 14.1728 52.284 14.0111Z" fill="url(#paint4_linear_273_238)"/>
<path d="M41.1197 5.32843C42.0554 3.7077 44.1282 3.1526 45.7489 4.08832C47.3696 5.02405 47.9247 7.09676 46.989 8.7175C46.8347 8.98407 46.6846 9.16705 46.4955 9.37383C34.3995 22.3721 25.4089 37.9439 20.2002 54.9186C20.1221 55.1663 20.0397 55.3938 19.8781 55.6744C18.9424 57.2951 16.8696 57.8502 15.2489 56.9145C13.6282 55.9787 13.0731 53.906 14.0088 52.2853C14.1631 52.0187 14.3138 51.8351 14.5023 51.629C26.5983 38.6307 35.589 23.0589 40.7976 6.08419C40.8763 5.83531 40.9581 5.60903 41.1197 5.32843Z" fill="url(#paint5_linear_273_238)"/>
<defs>
<linearGradient id="paint0_linear_273_238" x1="30.4999" y1="-2.80821e-05" x2="43.7943" y2="3.04986" gradientUnits="userSpaceOnUse">
<stop stop-color="white"/>
<stop offset="1" stop-color="#E3E3E3"/>
</linearGradient>
<linearGradient id="paint1_linear_273_238" x1="30.5012" y1="3.63376" x2="56.4592" y2="37.4328" gradientUnits="userSpaceOnUse">
<stop stop-color="white"/>
<stop offset="1" stop-color="#E3E3E3"/>
</linearGradient>
<linearGradient id="paint2_linear_273_238" x1="30.5005" y1="13.5554" x2="39.9691" y2="44.5524" gradientUnits="userSpaceOnUse">
<stop stop-color="white"/>
<stop offset="1" stop-color="#E3E3E3"/>
</linearGradient>
<linearGradient id="paint3_linear_273_238" x1="30.4999" y1="27.1108" x2="30.8637" y2="33.8694" gradientUnits="userSpaceOnUse">
<stop stop-color="white"/>
<stop offset="1" stop-color="#E3E3E3"/>
</linearGradient>
<linearGradient id="paint4_linear_273_238" x1="30.5" y1="13.5567" x2="39.9687" y2="44.5534" gradientUnits="userSpaceOnUse">
<stop stop-color="white"/>
<stop offset="1" stop-color="#E3E3E3"/>
</linearGradient>
<linearGradient id="paint5_linear_273_238" x1="30.4989" y1="3.63376" x2="56.457" y2="37.4331" gradientUnits="userSpaceOnUse">
<stop stop-color="white"/>
<stop offset="1" stop-color="#E3E3E3"/>
</linearGradient>
</defs>
</svg>
